HIERARCHY
ROOT Hips
{
	OFFSET -3.958830 18.904000 13.208200
	CHANNELS 6 Xposition Yposition Zposition Zrotation Yrotation Xrotation 
	JOINT LHipJoint
	{
		OFFSET 0.000000 0.000000 0.000000
		CHANNELS 3 Zrotation Yrotation Xrotation
		JOINT LeftUpLeg
		{
			OFFSET 1.800000 -1.400000 0.085000
			CHANNELS 3 Zrotation Yrotation Xrotation
			JOINT LeftLeg
			{
				OFFSET 2.215000 -6.000000 0.000000
				CHANNELS 3 Zrotation Yrotation Xrotation
				JOINT LeftFoot
				{
					OFFSET 2.500000 -6.900000 0.000000
					CHANNELS 3 Zrotation Yrotation Xrotation
					JOINT LeftToeBase
					{
						OFFSET 0.200000 -0.500000 1.950000
						CHANNELS 3 Zrotation Yrotation Xrotation
						End Site
						{
							OFFSET 0.000000 0.000000 0.000000
						}
					}
				}
			}
		}
	}
	JOINT RHipJoint
	{
		OFFSET 0.000000 0.000000 0.000000
		CHANNELS 3 Zrotation Yrotation Xrotation
		JOINT RightUpLeg
		{
			OFFSET -1.800000 -1.400000 0.085000
			CHANNELS 3 Zrotation Yrotation Xrotation
			JOINT RightLeg
			{
				OFFSET -2.215000 -6.000000 0.000000
				CHANNELS 3 Zrotation Yrotation Xrotation
				JOINT RightFoot
				{
					OFFSET -2.500000 -6.900000 0.000000
					CHANNELS 3 Zrotation Yrotation Xrotation
					JOINT RightToeBase
					{
						OFFSET -0.200000 -0.500000 1.950000
						CHANNELS 3 Zrotation Yrotation Xrotation
						End Site
						{
							OFFSET 0.000000 0.000000 0.000000
						}
					}
				}
			}
		}
	}
	JOINT LowerBack
	{
		OFFSET 0.000000 0.000000 0.000000
		CHANNELS 3 Zrotation Yrotation Xrotation
		JOINT Spine
		{
			OFFSET -0.087000 1.940000 -0.288900
			CHANNELS 3 Zrotation Yrotation Xrotation
			JOINT Spine1
			{
				OFFSET 0.000000 1.950000 0.060000
				CHANNELS 3 Zrotation Yrotation Xrotation
				JOINT Neck
				{
					OFFSET 0.000000 0.000000 0.000000
					CHANNELS 3 Zrotation Yrotation Xrotation
					JOINT Neck1
					{
						OFFSET 0.000000 1.600000 0.340000
						CHANNELS 3 Zrotation Yrotation Xrotation
						JOINT Head
						{
							OFFSET 0.000000 1.667000 -0.240000
							CHANNELS 3 Zrotation Yrotation Xrotation
							End Site
							{
								OFFSET 0.000000 0.000000 0.000000
							}
						}
					}
				}
				JOINT LeftShoulder
				{
					OFFSET 0.000000 0.000000 0.000000
					CHANNELS 3 Zrotation Yrotation Xrotation
					JOINT LeftArm
					{
						OFFSET 2.700000 1.550000 -0.730000
						CHANNELS 3 Zrotation Yrotation Xrotation
						JOINT LeftForeArm
						{
							OFFSET 5.450000 0.000000 0.000000
							CHANNELS 3 Zrotation Yrotation Xrotation
							JOINT LeftHand
							{
								OFFSET 3.450000 0.000000 0.000000
								CHANNELS 3 Zrotation Yrotation Xrotation
								JOINT LeftHandIndex1
								{
									OFFSET 0.750000 0.000000 0.000000
									CHANNELS 3 Zrotation Yrotation Xrotation
									End Site
									{
										OFFSET 0.000000 0.000000 0.000000
									}
								}
							}
						}
					}
				}
				JOINT RightShoulder
				{
					OFFSET 0.000000 0.000000 0.000000
					CHANNELS 3 Zrotation Yrotation Xrotation
					JOINT RightArm
					{
						OFFSET -2.700000 1.550000 -0.730000
						CHANNELS 3 Zrotation Yrotation Xrotation
						JOINT RightForeArm
						{
							OFFSET -5.450000 0.000000 0.000000
							CHANNELS 3 Zrotation Yrotation Xrotation
							JOINT RightHand
							{
								OFFSET -3.450000 0.000000 0.000000
								CHANNELS 3 Zrotation Yrotation Xrotation
								JOINT RightHandIndex1
								{
									OFFSET -0.750000 0.000000 0.000000
									CHANNELS 3 Zrotation Yrotation Xrotation
									End Site
									{
										OFFSET 0.000000 0.000000 0.000000
									}
								}
							}
						}
					}
				}
			}
		}
	}
}
MOTION
Frames: 13
Frame Time: 0.016667
-0.548530 17.011740 -4.617840 -15.738399 -31.052554 13.261045 -16.201212 9.931105 7.429097 38.202747 3.171539 -40.586739 -40.833030 19.336218 19.486007 0.556923 11.100239 0.806230 0.742740 0.293650 0.429270 18.074173 -7.970476 2.260969 -0.870081 7.577196 -23.987412 13.210995 -7.419900 24.793877 -0.332937 -4.059742 3.190879 0.306030 0.450490 0.231900 -2.615211 -2.621805 -9.353408 2.408402 0.970028 21.023106 -0.041990 3.217551 -1.268849 1.577107 -5.924006 -4.454622 -10.729691 13.085060 24.790796 3.881910 7.670390 -8.129770 -24.944437 11.092048 -3.355384 -43.197234 13.790428 -11.511694 -46.568900 -37.093922 10.630828 -3.707311 3.344373 0.582020 0.259710 -0.198120 0.410000 21.815504 -5.248498 3.499498 22.610309 -21.945811 -8.151619 122.849167 49.208041 60.968027 1.654543 -2.413832 -0.290340 0.320530 -0.150420 -0.278810 
-0.543640 17.008870 -4.612430 -15.892187 -31.217838 13.413729 -16.173437 9.980201 7.369528 37.736535 3.166743 -40.651350 -40.071204 19.627598 20.336656 0.548189 11.125571 0.796602 0.726340 0.271070 0.401810 18.084873 -7.999881 2.310143 -0.769624 7.741220 -24.205649 13.144736 -7.452436 25.144918 -0.328396 -4.090277 3.191018 0.292890 0.467930 0.228860 -2.664905 -2.587904 -9.360828 2.847145 0.869203 21.502629 -0.176267 3.334592 -2.423533 1.542586 -6.391517 -4.209638 -11.520095 13.425087 24.686031 4.307980 7.356230 -7.892260 -25.052680 12.242884 -3.626127 -44.269022 14.221996 -11.618564 -45.758729 -37.918310 10.820938 -3.712465 3.331864 0.584480 0.260800 -0.212270 0.411370 21.913077 -5.914598 3.147750 21.800399 -21.238343 -7.581592 123.567661 49.129504 62.376023 1.648621 -2.415671 -0.295890 0.326840 -0.133130 -0.272450 
-0.532250 17.014880 -4.608980 -16.162440 -31.832028 13.047137 -16.154703 10.208018 7.221327 36.797019 3.140516 -40.207627 -38.237137 20.178044 22.252899 0.568634 11.142916 0.789954 0.687670 0.222800 0.380920 18.060842 -8.047994 2.375159 -0.354290 7.908862 -24.005127 12.574320 -7.378044 25.823412 -0.338428 -4.079852 3.213309 0.238760 0.454840 0.219470 -2.611693 -2.734157 -9.382686 2.803725 1.031871 23.361332 0.169932 3.919707 -4.400168 1.719647 -7.004869 -4.194768 -12.681455 13.645831 25.313203 4.283430 7.197930 -8.147470 -24.839989 13.855423 -3.889614 -46.528664 14.803063 -12.017080 -45.136104 -39.409506 11.375211 -3.687896 3.286510 0.611070 0.230600 -0.193260 0.405260 21.314963 -6.567882 2.963186 21.439050 -20.421369 -7.285377 125.257434 49.660931 65.856083 1.689909 -2.370104 -0.292190 0.326320 -0.124430 -0.266610 
-0.522250 17.011480 -4.606820 -16.158364 -31.766413 13.241168 -16.120212 10.398063 7.029668 35.202315 2.836723 -41.051307 -35.067375 20.912654 25.667236 0.562049 11.197469 0.767639 0.629530 0.152700 0.334140 18.059917 -8.076810 2.503132 0.416779 8.324031 -24.968368 11.369530 -7.163156 26.997364 -0.318868 -4.048638 3.242495 0.181260 0.465640 0.213070 -2.604687 -2.822389 -9.372415 2.885944 1.002084 24.249858 0.370797 4.149373 -5.970626 1.893711 -7.430516 -4.353432 -13.445005 13.764232 25.499672 4.350220 6.815550 -7.768310 -23.724154 15.254174 -4.024700 -49.643691 14.921101 -12.532559 -41.259962 -38.771687 9.958486 -3.699636 3.206156 0.619740 0.222130 -0.200920 0.395090 19.885760 -7.237194 2.891576 22.683957 -19.262160 -7.161833 127.397355 49.975343 69.509181 1.721628 -2.322904 -0.295660 0.323230 -0.095170 -0.257700 
-0.514640 17.012620 -4.601690 -15.363150 -31.444168 12.919735 -16.077209 10.713331 6.757977 32.689917 1.968566 -42.021997 -30.740060 21.297343 29.997760 0.523228 11.213956 0.759522 0.558290 0.056070 0.288290 18.043321 -8.159818 2.603093 1.094818 8.412370 -25.772452 9.513864 -6.712120 27.980253 -0.271393 -3.948750 3.292804 0.117980 0.487120 0.193660 -2.535884 -3.030766 -9.299576 1.994126 0.890582 25.142386 0.925100 4.085788 -7.419708 1.861396 -7.975535 -4.701688 -14.546054 14.186677 25.581237 4.629660 6.381360 -7.046200 -22.523886 16.193353 -3.737543 -52.078893 15.544674 -13.068386 -39.481251 -39.119311 9.563626 -3.704993 3.144212 0.634540 0.214050 -0.227170 0.373350 18.927590 -7.407085 2.873368 23.870408 -18.164802 -7.201034 129.484236 50.715994 73.659765 1.753627 -2.255362 -0.319200 0.329440 -0.053530 -0.258140 
-0.494830 17.016940 -4.594070 -14.881513 -31.253596 12.321196 -16.001697 11.048467 6.425679 29.956901 1.120869 -42.705568 -25.103145 21.271296 35.381797 0.480153 11.234055 0.744405 0.519520 0.005630 0.277600 18.050757 -8.331460 2.692942 2.410379 8.287314 -25.941850 6.778825 -5.902998 28.642025 -0.234867 -3.764717 3.367744 0.080170 0.482880 0.178490 -2.539848 -3.094112 -9.197535 1.748749 0.923543 26.287524 0.806476 4.264452 -8.329351 2.029573 -8.076449 -4.833646 -14.733898 14.305930 26.056200 4.402130 6.329410 -7.089030 -22.021278 16.799326 -3.736978 -53.011163 15.516403 -13.103437 -39.088660 -40.361887 10.055035 -3.693587 3.108714 0.653050 0.199350 -0.225260 0.358220 18.093663 -7.706125 2.830433 25.905133 -17.058630 -7.387960 132.642798 51.264818 78.819588 1.776489 -2.193298 -0.332540 0.336980 -0.037940 -0.263830 
-0.472190 17.024460 -4.595250 -14.023839 -30.809946 11.203107 -15.930663 11.502854 5.989620 26.297227 0.042152 -43.446007 -17.568105 20.104027 41.804302 0.377609 11.152071 0.738986 0.512210 -0.023660 0.293060 18.038345 -8.554917 2.752212 3.533812 7.842874 -25.559993 4.174171 -5.017323 28.371604 -0.202273 -3.532049 3.435687 0.063640 0.455910 0.190560 -2.469689 -3.248807 -9.031519 0.863496 1.408444 27.456720 1.392021 4.762454 -8.385341 2.003256 -7.941038 -4.919919 -14.533662 13.970063 26.600665 3.783200 6.136600 -7.950580 -21.662697 16.784926 -3.607985 -53.351388 15.306786 -13.037001 -40.698298 -41.496165 11.068136 -3.682512 3.119480 0.690600 0.180990 -0.210090 0.337040 17.813565 -7.439144 2.761200 27.268445 -15.603484 -7.447883 135.134660 50.904149 81.752205 1.774320 -2.170401 -0.339220 0.323810 -0.021560 -0.285980 
-0.436890 17.032420 -4.595200 -13.317079 -29.719806 10.213916 -15.814461 11.969100 5.511087 22.195142 -1.168837 -44.079342 -8.989194 17.219257 47.568009 0.273257 10.753601 0.858404 0.519890 -0.030420 0.306710 18.060613 -8.823790 2.846118 4.567430 7.384690 -25.200403 1.982204 -4.314781 28.052198 -0.186823 -3.356268 3.496312 0.049130 0.426870 0.193620 -2.519878 -3.328377 -8.858454 1.097357 1.325379 29.056531 1.397582 4.923535 -8.695183 1.919361 -8.223571 -5.311445 -15.104215 13.650472 26.659158 3.591020 5.509970 -8.813600 -20.800140 16.629018 -3.307116 -53.421981 15.252410 -12.822668 -43.287590 -41.820772 12.203589 -3.647281 3.143111 0.716760 0.152240 -0.192160 0.333000 17.094321 -6.853450 2.958944 28.348788 -14.596493 -7.493105 136.939277 50.429110 83.538437 1.787281 -2.161715 -0.331100 0.311780 -0.027290 -0.291880 
-0.400100 17.035870 -4.604090 -12.413971 -27.848084 8.968251 -15.717561 12.467032 5.008591 17.682228 -2.421198 -44.086065 -0.161909 12.690404 50.973519 0.080347 9.984690 1.091114 0.535770 -0.029870 0.342920 18.066530 -9.093545 2.922927 5.364697 6.823635 -24.743064 -0.103660 -3.691824 27.596082 -0.176440 -3.220416 3.524453 0.059940 0.387600 0.205890 -2.518461 -3.470181 -8.650912 1.259190 1.418912 30.139949 1.593290 5.113105 -7.437762 1.930074 -8.021519 -5.586701 -14.808211 12.608258 26.850634 2.472930 5.072890 -10.341950 -20.719226 15.250406 -3.103704 -52.775975 14.087394 -12.528550 -46.324652 -42.238942 13.370252 -3.642522 3.168044 0.754220 0.137340 -0.172910 0.310110 16.946683 -5.619610 3.324011 28.957076 -14.180309 -8.076740 139.130769 50.216627 85.487599 1.771856 -2.142532 -0.338860 0.302920 -0.019490 -0.323330 
-0.367240 17.046550 -4.612230 -11.783807 -25.893319 7.404678 -15.606704 12.943379 4.540174 13.529846 -3.194944 -42.870220 8.021178 7.649491 51.419262 -0.041710 9.053976 1.398331 0.565840 0.013670 0.382280 18.083285 -9.387632 2.985984 6.058375 6.180043 -23.599264 -1.707906 -3.236421 26.869018 -0.196135 -3.096993 3.557456 0.068190 0.330850 0.211930 -2.580974 -3.539163 -8.458091 2.065344 1.322639 31.882275 1.410474 5.262013 -5.939504 1.910976 -8.003515 -6.250515 -14.944368 11.585943 27.446790 1.853930 4.385870 -12.796940 -20.680072 12.889790 -2.475887 -51.766635 13.209101 -12.637590 -49.880634 -42.810698 14.665316 -3.601414 3.188217 0.785390 0.098350 -0.120710 0.295570 16.867423 -3.248528 3.958779 29.425354 -13.141068 -8.611947 139.813152 49.446783 84.328228 1.799395 -2.109791 -0.314090 0.302200 -0.034610 -0.329940 
-0.340430 17.046600 -4.616920 -11.260631 -23.915083 6.377804 -15.517196 13.239054 4.218878 10.276941 -3.570080 -41.583536 14.641460 3.480533 49.538890 -0.144341 8.322691 1.658822 0.609670 0.064510 0.422380 18.112189 -9.591934 3.050376 6.764135 5.763580 -22.882189 -3.279606 -2.757707 26.167422 -0.211102 -2.988736 3.590049 0.103900 0.291710 0.193730 -2.691474 -3.523427 -8.316199 3.292548 0.909299 32.848000 1.131459 5.100889 -4.207333 1.762321 -8.334178 -6.986822 -15.705936 11.056734 27.539581 1.467570 3.676110 -14.716270 -21.021216 9.967172 -1.466657 -50.319315 13.129095 -13.059236 -53.499536 -43.715094 15.994277 -3.551030 3.202777 0.820340 0.063640 -0.091170 0.298930 17.448607 -0.184093 4.489850 27.854384 -11.473421 -8.704050 141.626254 48.595747 84.941675 1.805296 -2.091899 -0.320590 0.328430 -0.056990 -0.343610 
-0.316670 17.038660 -4.617640 -10.671097 -21.950536 5.758034 -15.459416 13.446185 3.974926 7.630431 -3.604420 -40.179803 19.752434 0.508611 45.840294 -0.205235 7.670488 1.908058 0.615970 0.069210 0.431490 18.127055 -9.733131 3.121419 7.421763 5.553551 -22.607057 -5.005046 -2.243264 25.697743 -0.212122 -2.911854 3.630081 0.102770 0.279340 0.179380 -2.760891 -3.499071 -8.222410 4.216160 0.823441 33.529949 1.125648 5.194388 -2.982570 1.786368 -8.415972 -7.829609 -15.856338 10.331997 27.541549 1.465290 2.988070 -15.597190 -20.562567 7.876764 -0.274247 -49.918042 14.130577 -13.800121 -58.515524 -45.466969 18.491770 -3.509378 3.226817 0.839200 0.046300 -0.081560 0.302270 16.991319 2.090517 5.045390 26.422785 -10.339193 -8.669509 141.747164 47.737078 83.272022 1.820697 -2.079065 -0.326280 0.343340 -0.066780 -0.347450 
-0.287580 17.022000 -4.614810 -9.869877 -20.007526 5.341316 -15.425713 13.561568 3.827225 5.468784 -3.559856 -39.035921 23.161109 -1.173974 41.949875 -0.239892 7.112642 2.111422 0.623730 0.085300 0.443190 18.130454 -9.842736 3.161059 7.466220 5.495430 -22.799174 -6.224684 -1.895307 25.666625 -0.222398 -2.890713 3.634947 0.098880 0.247620 0.180940 -2.798893 -3.435424 -8.166312 4.819420 1.023403 34.030128 1.057672 5.432888 -2.097806 2.024507 -8.079285 -8.516455 -15.099991 9.219169 27.530044 0.949240 2.609750 -16.287350 -19.737062 6.392000 0.608383 -49.260513 14.993433 -14.165965 -63.327490 -45.778802 20.431049 -3.470639 3.270740 0.842780 0.030430 -0.059440 0.302060 15.746605 3.549399 5.529901 25.372571 -9.422803 -8.359716 140.950879 46.371064 79.641370 1.840959 -2.106972 -0.309890 0.325670 -0.084710 -0.347840 
